#!OML:ASF F:\VICON\USERDATA\INSTALL\rory3\rory3.ASF
:FULLY-SPECIFIED
:DEGREES
540
root 5.13091 16.2092 6.5622 9.32475 -11.1401 -0.440753
lowerback 5.36422 1.06917 -2.64044
upperback -2.64751 1.21613 -0.130824
thorax -5.81801 0.699226 1.21959
lowerneck -10.9246 -7.32122 -7.8012
upperneck 14.5398 -9.56649 5.71298
head 6.88982 -4.59065 2.18502
rclavicle -1.66731e-014 1.5704e-014
rhumerus -41.2997 -2.74839 -80.415
rradius 64.8718
rwrist 11.5394
rhand -22.2594 -65.4369
rfingers 7.12502
rthumb 4.15832 -264.624
lclavicle -1.66731e-014 1.5704e-014
lhumerus -36.3614 -15.1187 74.5422
lradius 53.718
lwrist -6.86672
lhand -33.0879 -47.8692
lfingers 7.12502
lthumb -6.29903 -17.9828
rfemur -92.9968 7.0216 17.7149
rtibia 122.778
rfoot -6.61073 -13.481
rtoes -5.89734
lfemur -28.9961 7.52924 -24.7206
ltibia 51.5253
lfoot -27.1496 14.8779
ltoes -10.4322
541
root 5.13226 16.2133 6.57204 9.08465 -10.8163 -0.33146
lowerback 5.18026 0.903191 -2.99806
upperback -2.62498 0.978356 -0.0323926
thorax -5.68823 0.595678 1.55036
lowerneck -10.5179 -7.41745 -7.80995
upperneck 14.4935 -9.67903 5.44521
head 6.79952 -4.67539 2.10314
rclavicle -5.41688e-015 0
rhumerus -42.1379 -2.16531 -80.4576
rradius 65.8624
rwrist 11.5906
rhand -22.7308 -65.938
rfingers 7.12502
rthumb 3.70304 -264.114
lclavicle -5.41688e-015 0
lhumerus -35.8671 -15.404 74.0162
lradius 54.961
lwrist -6.0138
lhand -33.0624 -47.9511
lfingers 7.12502
lthumb -6.2745 -18.064
rfemur -92.6396 7.72691 17.3555
rtibia 121.967
rfoot -6.14627 -13.9136
rtoes -6.58291
lfemur -28.7419 7.44284 -24.807
ltibia 51.5264
lfoot -27.1535 14.9304
ltoes -10.8555
542
root 5.13017 16.2318 6.58684 8.97294 -10.5519 -0.53628
lowerback 4.982 0.761877 -3.05311
upperback -2.73801 0.800005 0.150226
thorax -5.68851 0.51476 1.79086
lowerneck -10.0163 -7.48937 -7.91082
upperneck 14.5407 -9.76898 5.25141
head 6.72975 -4.7497 2.06473
rclavicle 1.66482e-014 -1.90833e-014
rhumerus -43.1963 -1.44186 -80.4608
rradius 66.8298
rwrist 11.6539
rhand -22.6477 -66.023
rfingers 7.12502
rthumb 3.7833 -264.031
lclavicle 1.66482e-014 -1.90833e-014
lhumerus -35.5962 -15.7253 73.5429
lradius 56.2065
lwrist -5.54693
lhand -32.6669 -47.855
lfingers 7.12502
lthumb -5.89267 -17.957
rfemur -92.3775 8.60329 17.2595
rtibia 121.362
rfoot -5.79148 -14.2804
rtoes -6.2865
lfemur -28.3528 7.38578 -24.5355
ltibia 51.193
lfoot -27.0371 14.8954
ltoes -11.0191
543
root 5.12707 16.2764 6.61001 8.94023 -10.325 -1.30203
lowerback 4.73345 0.693202 -2.42328
upperback -2.79793 0.773832 0.398477
thorax -5.60046 0.482666 1.70019
lowerneck -9.74027 -7.67017 -8.06541
upperneck 14.7167 -10.006 5.15603
head 6.75831 -4.88485 2.04096
rclavicle 2.9445e-014 2.98177e-015
rhumerus -43.9218 -1.17936 -80.3366
rradius 67.3537
rwrist 12.2655
rhand -21.9456 -64.6417
rfingers 7.12502
rthumb 4.46131 -265.425
lclavicle 2.9445e-014 2.98177e-015
lhumerus -35.2036 -16.2425 73.0364
lradius 57.38
lwrist -5.55305
lhand -32.7956 -47.4742
lfingers 7.12502
lthumb -6.01689 -17.5797
rfemur -92.0306 9.7874 17.6638
rtibia 120.855
rfoot -5.46181 -14.7999
rtoes -5.98316
lfemur -27.7335 7.31409 -23.6271
ltibia 50.5744
lfoot -26.8756 14.7355
ltoes -10.8559
544
root 5.12671 16.3395 6.63916 8.90381 -10.0826 -1.81428
lowerback 4.52901 0.568514 -2.02893
upperback -2.93114 0.647767 0.578898
thorax -5.61378 0.410395 1.67948
lowerneck -9.47605 -7.79497 -8.13638
upperneck 14.9538 -10.1697 4.98291
head 6.79501 -4.98623 1.98629
rclavicle 2.82026e-015 2.08724e-014
rhumerus -44.5316 -0.837307 -80.3666
rradius 67.6147
rwrist 12.5461
rhand -22.9983 -62.1278
rfingers 7.12502
rthumb 3.44477 -267.92
lclavicle 2.82026e-015 2.08724e-014
lhumerus -35.0582 -16.8446 72.5524
lradius 58.6316
lwrist -5.44056
lhand -33.0392 -47.3102
lfingers 7.12502
lthumb -6.25201 -17.4225
rfemur -91.8785 10.5863 17.7763
rtibia 120.622
rfoot -5.26602 -15.1053
rtoes -6.34102
lfemur -26.9814 7.00369 -22.9925
ltibia 49.64
lfoot -26.6706 14.6039
ltoes -10.2913
545
root 5.13176 16.4141 6.66916 9.09128 -9.84981 -1.90298
lowerback 4.03224 0.351991 -2.05636
upperback -3.16912 0.36992 0.688707
thorax -5.568 0.277781 1.83647
lowerneck -9.21032 -7.80082 -8.16801
upperneck 15.2713 -10.1695 4.74352
head 6.84042 -5.01215 1.92101
rclavicle 2.12451e-015 2.98177e-015
rhumerus -45.1373 -0.200659 -80.5861
rradius 67.8652
rwrist 12.305
rhand -25.6061 -58.5618
rfingers 7.12502
rthumb 0.92622 -88.5395
lclavicle 2.12451e-015 2.98177e-015
lhumerus -34.9998 -17.2814 72.0931
lradius 59.6639
lwrist -5.30588
lhand -33.3593 -47.3933
lfingers 7.12502
lthumb -6.56107 -17.5149
rfemur -92.2516 10.8508 17.3542
rtibia 120.723
rfoot -4.94114 -14.9451
rtoes -6.43692
lfemur -26.3879 6.46472 -22.8908
ltibia 48.3776
lfoot -26.2276 14.6125
ltoes -9.74065
546
root 5.13133 16.5058 6.70015 9.38285 -9.7262 -2.13263
lowerback 3.44252 0.178129 -2.01184
upperback -3.39431 0.158264 0.861627
thorax -5.45731 0.175471 2.01001
lowerneck -9.3202 -7.90783 -8.27925
upperneck 15.8869 -10.2674 4.4486
head 7.05585 -5.08725 1.82066
rclavicle -1.99157e-014 1.2921e-014
rhumerus -45.6632 0.420184 -80.7383
rradius 68.115
rwrist 12.5108
rhand -25.0381 -64.2767
rfingers 7.12502
rthumb 1.47475 -265.749
lclavicle -1.99157e-014 1.2921e-014
lhumerus -34.8815 -17.6611 71.6974
lradius 60.4781
lwrist -5.26182
lhand -33.6224 -46.9549
lfingers 7.12502
lthumb -6.81511 -17.0846
rfemur -92.7938 11.2151 17.0292
rtibia 120.993
rfoot -4.38747 -14.6722
rtoes -5.8758
lfemur -25.6873 5.99474 -22.6377
ltibia 46.7479
lfoot -25.3616 14.8006
ltoes -9.94021
